{
    "asset" : {
        "generator" : "Khronos glTF Blender I/O v1.8.19",
        "version" : "2.0"
    },
    "scene" : 0,
    "scenes" : [
        {
            "name" : "Scene",
            "nodes" : [
                0,
                1,
                2,
                3,
                4,
                5,
                6,
                7,
                8,
                9,
                10,
                11,
                12,
                13,
                14,
                15,
                16,
                17,
                18,
                19,
                20,
                21,
                22,
                23,
                24,
                25,
                26,
                27,
                28,
                29,
                30,
                31
            ]
        }
    ],
    "nodes" : [
        {
            "name" : "Empty.007",
            "rotation" : [
                0,
                0.7071067690849304,
                0,
                0.7071068286895752
            ],
            "translation" : [
                3.43371319770813,
                0.4623206853866577,
                -7.380760192871094
            ]
        },
        {
            "mesh" : 0,
            "name" : "ground",
            "scale" : [
                10.27782154083252,
                10.27782154083252,
                10.27782154083252
            ]
        },
        {
            "name" : "Empty.008",
            "rotation" : [
                0,
                1,
                0,
                7.549790126404332e-08
            ],
            "translation" : [
                7.481087684631348,
                0.4623206853866577,
                -9.028371810913086
            ]
        },
        {
            "mesh" : 1,
            "name" : "wall-section.008",
            "rotation" : [
                0,
                1,
                0,
                7.549790126404332e-08
            ],
            "scale" : [
                1.4327044486999512,
                0.7713546752929688,
                0.1492086946964264
            ],
            "translation" : [
                7.481087684631348,
                0.46232062578201294,
                -9.028371810913086
            ]
        },
        {
            "name" : "Empty.009",
            "rotation" : [
                0,
                1,
                0,
                7.549790126404332e-08
            ],
            "translation" : [
                4.6247053146362305,
                0.4623206853866577,
                -9.028371810913086
            ]
        },
        {
            "mesh" : 1,
            "name" : "wall-section.009",
            "rotation" : [
                0,
                1,
                0,
                7.549790126404332e-08
            ],
            "scale" : [
                1.4327044486999512,
                0.7713546752929688,
                0.1492086946964264
            ],
            "translation" : [
                4.6247053146362305,
                0.46232062578201294,
                -9.028371810913086
            ]
        },
        {
            "name" : "Empty.010",
            "rotation" : [
                0,
                1,
                0,
                7.549790126404332e-08
            ],
            "translation" : [
                -0.5943665504455566,
                0.4623206853866577,
                -9.028371810913086
            ]
        },
        {
            "mesh" : 1,
            "name" : "wall-section.010",
            "rotation" : [
                0,
                1,
                0,
                7.549790126404332e-08
            ],
            "scale" : [
                1.4327044486999512,
                0.7713546752929688,
                0.1492086946964264
            ],
            "translation" : [
                -0.5943665504455566,
                0.46232062578201294,
                -9.028371810913086
            ]
        },
        {
            "name" : "Empty.011",
            "translation" : [
                -0.617823600769043,
                0.4623206853866577,
                -5.733149528503418
            ]
        },
        {
            "mesh" : 1,
            "name" : "wall-section.011",
            "scale" : [
                1.4327044486999512,
                0.7713546752929688,
                0.1492086946964264
            ],
            "translation" : [
                -0.617823600769043,
                0.46232062578201294,
                -5.733149528503418
            ]
        },
        {
            "name" : "Empty.012",
            "translation" : [
                2.238558769226074,
                0.4623206853866577,
                -5.733148574829102
            ]
        },
        {
            "mesh" : 1,
            "name" : "wall-section.012",
            "scale" : [
                1.4327044486999512,
                0.7713546752929688,
                0.1492086946964264
            ],
            "translation" : [
                2.238558769226074,
                0.46232062578201294,
                -5.733148574829102
            ]
        },
        {
            "name" : "Empty.013",
            "translation" : [
                7.457630157470703,
                0.4623206853866577,
                -5.733147621154785
            ]
        },
        {
            "mesh" : 1,
            "name" : "wall-section.013",
            "scale" : [
                1.4327044486999512,
                0.7713546752929688,
                0.1492086946964264
            ],
            "translation" : [
                7.457629680633545,
                0.46232062578201294,
                -5.733147621154785
            ]
        },
        {
            "name" : "Empty.014",
            "rotation" : [
                0,
                -0.7071068286895752,
                0,
                0.7071067094802856
            ],
            "translation" : [
                -2.20530366897583,
                0.4623206853866577,
                -7.383638381958008
            ]
        },
        {
            "mesh" : 1,
            "name" : "wall-section.014",
            "rotation" : [
                0,
                -0.7071068286895752,
                0,
                0.7071067094802856
            ],
            "scale" : [
                1.4327044486999512,
                0.7713546752929688,
                0.1492086946964264
            ],
            "translation" : [
                -2.20530366897583,
                0.46232062578201294,
                -7.38363790512085
            ]
        },
        {
            "mesh" : 1,
            "name" : "wall-section.015",
            "rotation" : [
                0,
                0.7071068286895752,
                0,
                0.7071067094802856
            ],
            "scale" : [
                1.4327044486999512,
                0.7713546752929688,
                0.1492086946964264
            ],
            "translation" : [
                9.07273006439209,
                0.46232062578201294,
                -7.439563274383545
            ]
        },
        {
            "name" : "Empty",
            "rotation" : [
                0,
                0.7071067690849304,
                0,
                0.7071068286895752
            ],
            "translation" : [
                -2.9706785678863525,
                0.9320254325866699,
                4.040846824645996
            ]
        },
        {
            "name" : "Empty.001",
            "rotation" : [
                0,
                0.7071067690849304,
                0,
                0.7071068286895752
            ],
            "translation" : [
                -2.9706785678863525,
                0.9320254325866699,
                1.184464454650879
            ]
        },
        {
            "name" : "Empty.002",
            "rotation" : [
                0,
                0.7071067690849304,
                0,
                0.7071068286895752
            ],
            "translation" : [
                -2.9706785678863525,
                0.9320254325866699,
                -4.034607410430908
            ]
        },
        {
            "name" : "Empty.003",
            "rotation" : [
                0,
                0.7071068286895752,
                0,
                -0.7071068286895752
            ],
            "translation" : [
                -6.2659010887146,
                0.9320254325866699,
                -4.058063983917236
            ]
        },
        {
            "name" : "Empty.004",
            "rotation" : [
                0,
                0.7071068286895752,
                0,
                -0.7071068286895752
            ],
            "translation" : [
                -6.265901565551758,
                0.9320254325866699,
                -1.2016816139221191
            ]
        },
        {
            "name" : "Empty.005",
            "rotation" : [
                0,
                0.7071068286895752,
                0,
                -0.7071068286895752
            ],
            "translation" : [
                -6.265902042388916,
                0.9320254325866699,
                4.01738977432251
            ]
        },
        {
            "name" : "Empty.006",
            "rotation" : [
                0,
                1,
                0,
                7.549790126404332e-08
            ],
            "translation" : [
                -4.61541223526001,
                0.9320254325866699,
                -5.645544052124023
            ]
        },
        {
            "mesh" : 1,
            "name" : "wall-section.001",
            "rotation" : [
                0,
                0.7071068286895752,
                0,
                0.7071067094802856
            ],
            "scale" : [
                1.4327044486999512,
                0.7713546752929688,
                0.1492086946964264
            ],
            "translation" : [
                -2.9706783294677734,
                0.9320253729820251,
                4.040846824645996
            ]
        },
        {
            "mesh" : 1,
            "name" : "wall-section.002",
            "rotation" : [
                0,
                0.7071068286895752,
                0,
                0.7071067094802856
            ],
            "scale" : [
                1.4327044486999512,
                0.7713546752929688,
                0.1492086946964264
            ],
            "translation" : [
                -2.9706783294677734,
                0.9320253729820251,
                1.184464454650879
            ]
        },
        {
            "mesh" : 1,
            "name" : "wall-section.003",
            "rotation" : [
                0,
                0.7071068286895752,
                0,
                0.7071067094802856
            ],
            "scale" : [
                1.4327044486999512,
                0.7713546752929688,
                0.1492086946964264
            ],
            "translation" : [
                -2.9706783294677734,
                0.9320253729820251,
                -4.034607410430908
            ]
        },
        {
            "mesh" : 1,
            "name" : "wall-section.004",
            "rotation" : [
                0,
                -0.7071068286895752,
                0,
                0.7071067094802856
            ],
            "scale" : [
                1.4327044486999512,
                0.7713546752929688,
                0.1492086946964264
            ],
            "translation" : [
                -6.2659010887146,
                0.9320253729820251,
                -4.058063983917236
            ]
        },
        {
            "mesh" : 1,
            "name" : "wall-section.005",
            "rotation" : [
                0,
                -0.7071068286895752,
                0,
                0.7071067094802856
            ],
            "scale" : [
                1.4327044486999512,
                0.7713546752929688,
                0.1492086946964264
            ],
            "translation" : [
                -6.265901565551758,
                0.9320253729820251,
                -1.2016816139221191
            ]
        },
        {
            "mesh" : 1,
            "name" : "wall-section.006",
            "rotation" : [
                0,
                -0.7071068286895752,
                0,
                0.7071067094802856
            ],
            "scale" : [
                1.4327044486999512,
                0.7713546752929688,
                0.1492086946964264
            ],
            "translation" : [
                -6.265902042388916,
                0.9320253729820251,
                4.017389297485352
            ]
        },
        {
            "mesh" : 1,
            "name" : "wall-section.007",
            "rotation" : [
                0,
                1,
                0,
                7.549790126404332e-08
            ],
            "scale" : [
                1.4327044486999512,
                0.7713546752929688,
                0.1492086946964264
            ],
            "translation" : [
                -4.615412712097168,
                0.9320253729820251,
                -5.645544052124023
            ]
        },
        {
            "mesh" : 1,
            "name" : "wall-section",
            "scale" : [
                1.4327044486999512,
                0.7713546752929688,
                0.1492086946964264
            ],
            "translation" : [
                -4.617443084716797,
                0.8528302907943726,
                5.499377250671387
            ]
        }
    ],
    "meshes" : [
        {
            "name" : "Plane",
            "primitives" : [
                {
                    "attributes" : {
                        "POSITION" : 0
                    },
                    "indices" : 1
                }
            ]
        },
        {
            "name" : "Cube.001",
            "primitives" : [
                {
                    "attributes" : {
                        "POSITION" : 2
                    },
                    "indices" : 3
                }
            ]
        }
    ],
    "accessors" : [
        {
            "bufferView" : 0,
            "componentType" : 5126,
            "count" : 81,
            "max" : [
                1,
                0.04355916008353233,
                1
            ],
            "min" : [
                -1,
                -0.056367430835962296,
                -1
            ],
            "type" : "VEC3"
        },
        {
            "bufferView" : 1,
            "componentType" : 5123,
            "count" : 384,
            "type" : "SCALAR"
        },
        {
            "bufferView" : 2,
            "componentType" : 5126,
            "count" : 12,
            "max" : [
                1,
                1,
                1
            ],
            "min" : [
                -1,
                -1,
                -1
            ],
            "type" : "VEC3"
        },
        {
            "bufferView" : 3,
            "componentType" : 5123,
            "count" : 60,
            "type" : "SCALAR"
        }
    ],
    "bufferViews" : [
        {
            "buffer" : 0,
            "byteLength" : 972,
            "byteOffset" : 0
        },
        {
            "buffer" : 0,
            "byteLength" : 768,
            "byteOffset" : 972
        },
        {
            "buffer" : 0,
            "byteLength" : 144,
            "byteOffset" : 1740
        },
        {
            "buffer" : 0,
            "byteLength" : 120,
            "byteOffset" : 1884
        }
    ],
    "buffers" : [
        {
            "byteLength" : 2004,
            "uri" : "haus-export0.bin"
        }
    ]
}
