{
    "asset" : {
        "generator" : "Khronos glTF Blender I/O v1.8.19",
        "version" : "2.0"
    },
    "scene" : 0,
    "scenes" : [
        {
            "name" : "Scene",
            "nodes" : [
                0,
                1,
                4
            ]
        }
    ],
    "nodes" : [
        {
            "mesh" : 0,
            "name" : "Cube"
        },
        {
            "mesh" : 1,
            "name" : "Cube.001",
            "rotation" : [
                0.12012514472007751,
                0.34541839361190796,
                0.4189262092113495,
                0.8311178684234619
            ],
            "translation" : [
                1.5623562335968018,
                1.1938254833221436,
                -1.432440161705017
            ]
        },
        {
            "mesh" : 2,
            "name" : "Cube.004",
            "translation" : [
                1.4308984279632568,
                0.44826364517211914,
                0.6620674729347229
            ]
        },
        {
            "children" : [
                2
            ],
            "mesh" : 3,
            "name" : "Cube.003",
            "rotation" : [
                0.09418324381113052,
                0.270822674036026,
                0.32845598459243774,
                0.8999451398849487
            ],
            "translation" : [
                4.260686874389648,
                -4.2285332679748535,
                2.264738082885742
            ]
        },
        {
            "children" : [
                3
            ],
            "mesh" : 4,
            "name" : "Cube.002",
            "rotation" : [
                0.12012514472007751,
                0.34541839361190796,
                0.4189262092113495,
                0.8311178684234619
            ],
            "translation" : [
                -4.232728004455566,
                1.3156461715698242,
                0.12884843349456787
            ]
        }
    ],
    "meshes" : [
        {
            "name" : "Cube",
            "primitives" : [
                {
                    "attributes" : {
                        "POSITION" : 0
                    },
                    "indices" : 1
                }
            ]
        },
        {
            "name" : "Cube.001",
            "primitives" : [
                {
                    "attributes" : {
                        "POSITION" : 2
                    },
                    "indices" : 1
                }
            ]
        },
        {
            "name" : "Cube.004",
            "primitives" : [
                {
                    "attributes" : {
                        "POSITION" : 3
                    },
                    "indices" : 1
                }
            ]
        },
        {
            "name" : "Cube.003",
            "primitives" : [
                {
                    "attributes" : {
                        "POSITION" : 4
                    },
                    "indices" : 1
                }
            ]
        },
        {
            "name" : "Cube.002",
            "primitives" : [
                {
                    "attributes" : {
                        "POSITION" : 5
                    },
                    "indices" : 1
                }
            ]
        }
    ],
    "accessors" : [
        {
            "bufferView" : 0,
            "componentType" : 5126,
            "count" : 8,
            "max" : [
                1,
                1,
                1
            ],
            "min" : [
                -1,
                -1,
                -1
            ],
            "type" : "VEC3"
        },
        {
            "bufferView" : 1,
            "componentType" : 5123,
            "count" : 36,
            "type" : "SCALAR"
        },
        {
            "bufferView" : 2,
            "componentType" : 5126,
            "count" : 8,
            "max" : [
                1,
                1,
                1
            ],
            "min" : [
                -1,
                -1,
                -1
            ],
            "type" : "VEC3"
        },
        {
            "bufferView" : 3,
            "componentType" : 5126,
            "count" : 8,
            "max" : [
                1,
                1,
                1
            ],
            "min" : [
                -1,
                -1,
                -1
            ],
            "type" : "VEC3"
        },
        {
            "bufferView" : 4,
            "componentType" : 5126,
            "count" : 8,
            "max" : [
                1,
                1,
                1
            ],
            "min" : [
                -1,
                -1,
                -1
            ],
            "type" : "VEC3"
        },
        {
            "bufferView" : 5,
            "componentType" : 5126,
            "count" : 8,
            "max" : [
                1,
                1,
                1
            ],
            "min" : [
                -1,
                -1,
                -1
            ],
            "type" : "VEC3"
        }
    ],
    "bufferViews" : [
        {
            "buffer" : 0,
            "byteLength" : 96,
            "byteOffset" : 0
        },
        {
            "buffer" : 0,
            "byteLength" : 72,
            "byteOffset" : 96
        },
        {
            "buffer" : 0,
            "byteLength" : 96,
            "byteOffset" : 168
        },
        {
            "buffer" : 0,
            "byteLength" : 96,
            "byteOffset" : 264
        },
        {
            "buffer" : 0,
            "byteLength" : 96,
            "byteOffset" : 360
        },
        {
            "buffer" : 0,
            "byteLength" : 96,
            "byteOffset" : 456
        }
    ],
    "buffers" : [
        {
            "byteLength" : 552,
            "uri" : "test.bin"
        }
    ]
}
